<?xml version="1.0" standalone="no"?>
<!DOCTYPE svg PUBLIC "-//W3C//DTD SVG 20010904//EN"
 "http://www.w3.org/TR/2001/REC-SVG-20010904/DTD/svg10.dtd">
<svg version="1.0" xmlns="http://www.w3.org/2000/svg"
 width="784.000000pt" height="784.000000pt" viewBox="0 0 784.000000 784.000000"
 preserveAspectRatio="xMidYMid meet">
<metadata>
Created by potrace 1.14, written by Peter Selinger 2001-2017
</metadata>
<g transform="translate(0.000000,784.000000) scale(0.100000,-0.100000)"
fill="#000000" stroke="none">
<path d="M3468 7635 c-2 -2 -32 -6 -68 -9 -36 -3 -83 -9 -106 -12 -22 -3 -62
-7 -90 -9 -27 -2 -49 -4 -49 -5 0 -3 -40 -10 -76 -14 -19 -2 -53 -9 -75 -15
-21 -5 -55 -13 -74 -16 -51 -9 -119 -25 -167 -41 -23 -7 -53 -15 -66 -18 -41
-7 -272 -85 -337 -113 -8 -3 -17 -7 -20 -8 -3 -1 -18 -7 -33 -13 -100 -42
-133 -57 -138 -65 -3 -5 -10 -9 -15 -9 -5 0 -19 -4 -32 -9 -13 -5 -27 -9 -32
-9 -5 0 -10 -3 -12 -7 -1 -5 -34 -23 -73 -42 -38 -19 -92 -49 -120 -66 -27
-17 -57 -34 -66 -37 -32 -12 -317 -209 -409 -283 -193 -154 -396 -351 -530
-514 -25 -30 -54 -64 -65 -76 -11 -12 -38 -48 -60 -79 -22 -31 -46 -63 -53
-71 -38 -42 -232 -353 -232 -372 0 -6 -4 -13 -9 -15 -13 -4 -178 -349 -196
-408 -4 -14 -11 -30 -16 -36 -5 -6 -10 -19 -12 -30 -4 -19 -12 -43 -27 -79
-10 -23 -61 -185 -64 -200 -1 -5 -5 -16 -9 -22 -5 -7 -6 -13 -3 -13 2 0 0 -15
-6 -32 -5 -18 -14 -51 -19 -73 -5 -22 -11 -49 -14 -60 -8 -35 -16 -69 -21 -95
-2 -14 -7 -36 -9 -50 -12 -59 -17 -86 -20 -105 -1 -11 -3 -20 -4 -20 -1 0 -4
-28 -6 -63 -3 -35 -6 -66 -9 -70 -18 -30 -28 -607 -13 -752 9 -93 20 -184 22
-195 1 -5 5 -32 9 -60 4 -27 11 -70 16 -95 6 -25 12 -56 14 -70 2 -14 10 -47
16 -75 7 -27 14 -59 15 -70 2 -11 4 -21 5 -22 2 -2 4 -7 5 -13 1 -5 3 -11 5
-12 1 -2 3 -12 5 -23 2 -11 11 -45 20 -75 9 -30 17 -60 19 -67 1 -7 5 -16 9
-19 4 -4 7 -15 7 -24 0 -10 9 -39 19 -66 10 -27 33 -87 51 -134 42 -111 49
-127 136 -305 210 -432 512 -827 879 -1148 44 -39 82 -73 85 -76 14 -16 246
-186 325 -237 50 -33 92 -62 93 -67 2 -4 8 -5 13 -1 5 3 9 0 9 -5 0 -6 4 -11
9 -11 5 0 38 -17 72 -38 82 -50 419 -214 436 -213 2 0 20 -7 40 -16 73 -30 88
-36 98 -39 6 -2 50 -17 100 -34 49 -17 99 -32 110 -35 11 -2 63 -16 115 -31
97 -27 257 -62 320 -70 19 -3 46 -7 60 -10 31 -6 69 -11 140 -19 248 -27 666
-27 860 1 19 2 55 6 80 8 25 2 56 7 70 10 14 3 75 15 135 27 171 33 197 38
229 49 17 5 91 28 165 51 123 37 249 83 343 123 21 9 39 16 40 16 8 -2 308
151 313 160 3 5 15 10 26 10 10 0 19 3 19 8 0 4 23 20 51 36 312 175 665 475
944 800 28 32 56 65 63 72 6 7 12 17 12 22 0 6 4 12 8 14 12 4 137 176 192
263 25 39 48 72 53 73 4 2 5 7 2 11 -9 16 43 51 180 121 134 68 208 109 231
127 17 14 47 32 82 49 17 9 32 20 32 25 0 5 4 9 10 9 10 0 104 64 128 87 7 7
17 13 21 13 4 0 16 8 27 17 10 10 45 38 77 62 31 24 71 59 88 79 27 30 30 40
26 79 -10 105 -123 146 -206 75 -17 -15 -52 -43 -78 -62 -27 -19 -50 -37 -53
-40 -10 -11 -181 -130 -186 -130 -3 0 -24 -13 -47 -29 -23 -16 -59 -38 -79
-49 l-36 -21 23 53 c20 46 78 193 100 256 1 3 8 26 15 52 8 27 17 48 20 48 3
0 6 9 7 19 1 11 11 52 23 92 12 40 24 85 26 99 3 14 8 34 11 45 9 26 9 26 27
120 9 44 18 91 21 105 3 14 8 45 10 70 3 25 8 57 11 72 8 38 15 104 19 173 2
33 4 60 5 60 2 0 7 150 9 265 2 96 -11 340 -24 435 -3 22 -7 57 -10 79 -2 21
-7 46 -9 55 -3 9 -7 34 -10 56 -2 22 -7 51 -10 65 -3 14 -8 39 -12 55 -3 17
-7 39 -9 50 -3 11 -9 40 -16 65 -6 25 -13 55 -15 67 -2 12 -8 33 -13 45 -5 13
-9 25 -9 28 -1 9 -9 34 -41 140 -34 106 -36 114 -65 185 -13 33 -23 58 -41
105 -1 3 -9 21 -16 40 -56 141 -214 429 -332 605 -208 311 -525 651 -808 865
-18 14 -38 31 -45 38 -7 6 -15 12 -19 12 -3 0 -15 9 -27 20 -12 11 -28 20 -35
20 -7 0 -13 4 -13 8 0 7 -145 105 -218 147 -9 6 -28 18 -43 27 -14 9 -75 42
-135 73 -60 32 -118 62 -129 68 -11 6 -22 12 -25 12 -3 1 -27 11 -55 24 -27
12 -70 31 -94 42 -23 11 -71 29 -105 41 -33 11 -65 24 -71 29 -5 5 -17 9 -27
9 -10 0 -26 4 -36 10 -21 11 -164 56 -247 76 -33 8 -69 17 -80 20 -11 3 -29 7
-40 9 -11 2 -51 11 -90 20 -38 9 -85 18 -102 20 -18 3 -48 7 -65 10 -18 2 -44
6 -58 9 -14 3 -52 8 -85 11 -33 3 -78 8 -100 11 -45 6 -582 14 -587 9z"/>
</g>
</svg>
